# xmcd
#
# Track frame offsets:
#	150
#	2611
#	24602
#	42862
#	44518
#	61662
#	66391
#	87680
#	109364
#	115334
#	137515
#	169929
#	190779
#	199448
#
# Disc length: 2967 seconds
#
# Revision: 0
# Processed by: cddbd v1.5.1PL0 Copyright (c) Steve Scherf et al.
# Submitted via: dBpowerAMP V4.0
#
DISCID=ca0b950e
DTITLE=Mama's Pit - Mama's Pit
DYEAR=1999
DGENRE=Blues
TTITLE0=Mama's Pit - Introduction
TTITLE1=Mama's Pit - Mister Evil
TTITLE2=Mama's Pit - Living In The Ghetto
TTITLE3=Mama's Pit - Before Recording
TTITLE4=Mama's Pit - The Way You Treated Me
TTITLE5=Mama's Pit - Street Choir
TTITLE6=Mama's Pit - You're Takin'up
TTITLE7=Mama's Pit - Keep Your Head Up
TTITLE8=Mama's Pit - Johnny Going To:
TTITLE9=Mama's Pit - Mama's Pit
TTITLE10=Mama's Pit - The Thrill Is Gone
TTITLE11=Mama's Pit - Take Me To The River
TTITLE12=Mama's Pit - Mercedes Benz
TTITLE13=Mama's Pit - Little Wing
EXTD=
EXTT0=
EXTT1=
EXTT2=
EXTT3=
EXTT4=
EXTT5=
EXTT6=
EXTT7=
EXTT8=
EXTT9=
EXTT10=
EXTT11=
EXTT12=
EXTT13=
PLAYORDER=
